<svg width="182" height="182" viewBox="0 0 182 182" fill="none" xmlns="http://www.w3.org/2000/svg">
<path d="M50.31 73.374C50.428 73.386 50.54 73.39 50.654 73.39C51.552 73.39 52.42 73.038 53.06 72.394L55.928 69.522L75.81 89.4L46.29 118.916C43.912 121.294 42.77 124.58 43.082 128.166C43.378 131.53 44.938 134.78 47.438 137.272L47.684 137.526C50.606 140.44 54.368 141.932 57.954 141.932C60.99 141.932 63.9 140.866 66.076 138.69L88.06 116.71L112.77 141.75C114.872 143.852 117.758 145.012 120.896 145.012C124.604 145.012 128.342 143.398 131.36 140.372C133.902 137.832 135.458 134.586 135.75 131.224C136.058 127.642 134.922 124.356 132.554 121.994L113.53 102.708C119.936 102.7 126.066 99.938 131.648 94.356L139.414 86.59C147.91 78.098 145.394 68.098 141.414 58.554L139.456 53.866L126.894 66.44C125.042 68.296 123.374 69.362 121.948 69.608C121.03 69.772 119.608 69.736 117.542 67.662L117.3 67.428C115.254 65.382 113.668 62.978 118.546 58.096L131.12 45.53L126.436 43.572C116.894 39.588 106.896 37.088 98.404 45.572L90.626 53.342C81.93 62.05 79.446 72.052 83.45 81.822C83.208 82.022 82.974 82.232 82.75 82.454L80.614 84.59L60.732 64.712L63.86 61.584C64.582 60.862 64.942 59.85 64.836 58.83C64.73 57.814 64.176 56.9 63.32 56.338L47.554 45.982C46.206 45.1 44.422 45.274 43.28 46.42L37.882 51.826C36.746 52.966 36.566 54.752 37.448 56.096L47.808 71.858C48.374 72.712 49.294 73.268 50.31 73.374ZM127.732 126.78C128.67 127.718 129.11 129.084 128.974 130.636C128.822 132.406 127.966 134.152 126.352 135.772C124.802 137.322 122.812 138.21 120.894 138.21C119.96 138.21 118.628 137.992 117.594 136.96L86.932 105.884L97.092 95.724L127.732 126.78ZM87.564 87.264C87.946 86.882 88.436 86.584 89.056 86.35L92.736 84.972L90.842 81.53C86.424 73.49 87.974 65.624 95.44 58.154L103.218 50.384C107.182 46.416 111.59 45.658 118.988 48.044L113.742 53.286C104.956 62.076 109.192 68.93 112.524 72.262L112.766 72.496C116.712 76.454 120.574 76.746 123.118 76.308C125.994 75.804 128.806 74.148 131.708 71.246L136.95 66C139.332 73.41 138.576 77.816 134.61 81.778L126.844 89.548C119.894 96.498 112.524 97.736 104.348 93.392L101.7 90.708C100.642 89.638 99.328 88.806 97.794 88.228L95.748 87.458L89.616 93.586L85.428 89.4L87.564 87.264ZM84.806 98.396L78.67 104.532L79.44 106.578C80.01 108.098 80.842 109.406 81.898 110.46L83.284 111.862L61.268 133.882C59.178 135.976 55.236 135.452 52.526 132.754L52.28 132.496C50.874 131.094 50.014 129.348 49.862 127.574C49.726 126.028 50.166 124.656 51.1 123.722L80.62 94.206L84.806 98.396ZM46.142 53.186L56.102 59.732L51.204 64.63L44.654 54.672L46.142 53.186Z" fill="black"/>
</svg>
