<svg width="92" height="68" viewBox="0 0 92 68" fill="none" xmlns="http://www.w3.org/2000/svg">
<g clip-path="url(#clip0_1_2)">
<rect width="92" height="68" fill="white"/>
<g filter="url(#filter0_d_1_2)">
<path d="M46 0L85.8372 69H6.16283L46 0Z" fill="#3C9676"/>
</g>
<g filter="url(#filter1_d_1_2)">
<path d="M22.5067 35.936C21.1841 34.3573 20.5227 32.8 20.5227 31.264C20.5227 29.6853 20.8854 28.3413 21.6107 27.232C22.3361 26.08 23.5094 25.12 25.1307 24.352C26.7521 23.5413 28.5868 23.136 30.6348 23.136H56.8748C58.1974 23.136 59.6481 23.008 61.2268 22.752C62.8481 22.496 63.9788 22.24 64.6188 21.984V30.048L63.9788 29.984V28.896C63.9788 27.872 63.6161 26.9973 62.8908 26.272C62.1654 25.504 61.3121 25.0987 60.3308 25.056H48.1708V63.392C48.2134 64.928 48.8961 66.08 50.2188 66.848C50.8588 67.1893 51.5414 67.36 52.2668 67.36H53.0988V68H39.0828V67.36H39.9148C41.0241 67.36 41.9628 66.976 42.7308 66.208C43.5414 65.44 43.9681 64.5227 44.0108 63.456V25.056H30.6348C27.2214 25.056 24.7467 26.144 23.2107 28.32C22.4001 29.4293 21.9948 30.6027 21.9948 31.84C21.9948 33.0347 22.3361 34.2933 23.0187 35.616L22.5067 35.936Z" fill="url(#paint0_linear_1_2)"/>
</g>
</g>
<defs>
<filter id="filter0_d_1_2" x="2.16284" y="0" width="87.6743" height="77" filterUnits="userSpaceOnUse" color-interpolation-filters="sRGB">
<feFlood flood-opacity="0" result="BackgroundImageFix"/>
<feColorMatrix in="SourceAlpha" type="matrix" values="0 0 0 0 0 0 0 0 0 0 0 0 0 0 0 0 0 0 127 0" result="hardAlpha"/>
<feOffset dy="4"/>
<feGaussianBlur stdDeviation="2"/>
<feComposite in2="hardAlpha" operator="out"/>
<feColorMatrix type="matrix" values="0 0 0 0 0 0 0 0 0 0 0 0 0 0 0 0 0 0 0.25 0"/>
<feBlend mode="normal" in2="BackgroundImageFix" result="effect1_dropShadow_1_2"/>
<feBlend mode="normal" in="SourceGraphic" in2="effect1_dropShadow_1_2" result="shape"/>
</filter>
<filter id="filter1_d_1_2" x="16.5227" y="21.984" width="52.096" height="54.016" filterUnits="userSpaceOnUse" color-interpolation-filters="sRGB">
<feFlood flood-opacity="0" result="BackgroundImageFix"/>
<feColorMatrix in="SourceAlpha" type="matrix" values="0 0 0 0 0 0 0 0 0 0 0 0 0 0 0 0 0 0 127 0" result="hardAlpha"/>
<feOffset dy="4"/>
<feGaussianBlur stdDeviation="2"/>
<feComposite in2="hardAlpha" operator="out"/>
<feColorMatrix type="matrix" values="0 0 0 0 0 0 0 0 0 0 0 0 0 0 0 0 0 0 0.25 0"/>
<feBlend mode="normal" in2="BackgroundImageFix" result="effect1_dropShadow_1_2"/>
<feBlend mode="normal" in="SourceGraphic" in2="effect1_dropShadow_1_2" result="shape"/>
</filter>
<linearGradient id="paint0_linear_1_2" x1="46" y1="6" x2="46" y2="92" gradientUnits="userSpaceOnUse">
<stop stop-color="#FF4D00"/>
<stop offset="1" stop-color="#F50B0B"/>
</linearGradient>
<clipPath id="clip0_1_2">
<rect width="92" height="68" fill="white"/>
</clipPath>
</defs>
</svg>
